<?xml version="1.0" encoding="UTF-8"?><svg id="Layer_2" xmlns="http://www.w3.org/2000/svg" viewBox="0 0 1543.91 173.16"><defs><style>.cls-1{fill:#fff;}</style></defs><g id="Layer_1-2"><g><path class="cls-1" d="M500.4,136.29V10.3h29.7v126h-29.7Z"/><path class="cls-1" d="M544.72,136.44V10.45h29.7v126h-29.7Z"/><path class="cls-1" d="M588.98,136.44V10.45h88.74v27.36h-56.7v20.88h44.64v27.36h-44.64v23.04h58.68v27.36h-90.72Z"/><path class="cls-1" d="M0,73.29C0,31.17,29.7,8.86,64.44,8.86s57.06,18.54,60.48,47.16h-33.66c-1.62-12.06-12.42-19.8-27-19.8-17.64,0-32.04,12.6-32.04,37.08s14.22,37.08,32.04,37.08c14.76,0,25.74-7.74,28.08-19.8h31.86c-2.34,28.62-25.92,47.16-59.76,47.16S0,115.41,0,73.29Z"/><path class="cls-1" d="M128.98,90.93c0-26.82,20.34-46.8,48.6-46.8s48.6,19.98,48.6,46.8-20.34,46.8-48.6,46.8-48.6-19.98-48.6-46.8Zm48.6,21.6c11.34,0,18.9-8.64,18.9-21.6s-7.56-21.6-18.9-21.6-18.9,8.64-18.9,21.6,7.56,21.6,18.9,21.6Z"/><path class="cls-1" d="M262.35,90.39v45.9h-29.7V45.57h29.7v13.68c5.22-10.8,11.88-13.68,21.96-13.68h9.54v24.48h-15.84c-9.9,0-15.66,7.56-15.66,20.34Z"/><path class="cls-1" d="M303.98,45.57h29.7v10.44c5.22-7.02,14.76-11.88,26.64-11.88,20.34,0,33.66,14.94,33.66,35.1v57.06h-29.7v-50.04c0-9-6.3-15.84-15.3-15.84s-15.3,6.84-15.3,15.84v50.04h-29.7V45.57Z"/><path class="cls-1" d="M400.61,90.93c0-21.42,12.96-46.8,45.54-46.8,34.38,0,45.72,25.92,45.72,45,0,4.14-.18,6.66-.36,8.82h-62.46c1.8,10.08,8.1,15.84,18.9,15.84,8.1,0,13.68-2.88,15.3-9h28.62c-3.78,20.16-21.6,32.94-43.92,32.94-32.58,0-47.34-25.38-47.34-46.8Zm61.92-10.62c-.54-7.74-6.12-15.12-16.38-15.12-9.54,0-15.12,4.14-17.1,15.12h33.48Z"/><path class="cls-1" d="M689.84,45.72h29.7v10.44c5.22-7.02,14.76-11.88,26.64-11.88,20.34,0,33.66,14.94,33.66,35.1v57.06h-29.7v-50.04c0-9-6.3-15.84-15.3-15.84s-15.3,6.84-15.3,15.84v50.04h-29.7V45.72Z"/><path class="cls-1" d="M802.04,150.48h41.76c5.94,0,10.26-4.86,10.26-11.7v-10.08c-4.86,5.94-13.32,9.18-22.68,9.18-26.1,0-42.48-17.82-42.48-46.8s16.38-46.8,41.94-46.8c10.62,0,18.18,3.42,23.04,8.64v-7.2h29.7v96.66c0,18.72-13.5,30.78-34.38,30.78h-47.16v-22.68Zm34.56-37.8c11.52,0,18.9-8.46,18.9-21.6s-7.38-21.6-18.9-21.6-18.72,8.46-18.72,21.6,7.38,21.6,18.72,21.6Z"/><path class="cls-1" d="M898.17,45.72h29.7v90.72h-29.7V45.72Z"/><path class="cls-1" d="M942.45,45.72h29.7v10.44c5.22-7.02,14.76-11.88,26.64-11.88,20.34,0,33.66,14.94,33.66,35.1v57.06h-29.7v-50.04c0-9-6.3-15.84-15.3-15.84s-15.3,6.84-15.3,15.84v50.04h-29.7V45.72Z"/><path class="cls-1" d="M1039.35,91.08c0-21.42,12.96-46.8,45.54-46.8,34.38,0,45.72,25.92,45.72,45,0,4.14-.18,6.66-.36,8.82h-62.46c1.8,10.08,8.1,15.84,18.9,15.84,8.1,0,13.68-2.88,15.3-9h28.62c-3.78,20.16-21.6,32.94-43.92,32.94-32.58,0-47.34-25.38-47.34-46.8Zm61.92-10.62c-.54-7.74-6.12-15.12-16.38-15.12-9.54,0-15.12,4.14-17.1,15.12h33.48Z"/><path class="cls-1" d="M1135.8,91.08c0-21.42,12.96-46.8,45.54-46.8,34.38,0,45.72,25.92,45.72,45,0,4.14-.18,6.66-.36,8.82h-62.46c1.8,10.08,8.1,15.84,18.9,15.84,8.1,0,13.68-2.88,15.3-9h28.62c-3.78,20.16-21.6,32.94-43.92,32.94-32.58,0-47.34-25.38-47.34-46.8Zm61.92-10.62c-.54-7.74-6.12-15.12-16.38-15.12-9.54,0-15.12,4.14-17.1,15.12h33.48Z"/><path class="cls-1" d="M1265.03,90.54v45.9h-29.7V45.72h29.7v13.68c5.22-10.8,11.88-13.68,21.96-13.68h9.54v24.48h-15.84c-9.9,0-15.66,7.56-15.66,20.34Z"/><path class="cls-1" d="M1350.95,45.72h29.7v10.44c5.22-7.02,14.76-11.88,26.64-11.88,20.34,0,33.66,14.94,33.66,35.1v57.06h-29.7v-50.04c0-9-6.3-15.84-15.3-15.84s-15.3,6.84-15.3,15.84v50.04h-29.7V45.72Z"/><path class="cls-1" d="M1462.37,150.48h41.76c5.94,0,10.26-4.86,10.26-11.7v-10.08c-4.86,5.94-13.32,9.18-22.68,9.18-26.1,0-42.48-17.82-42.48-46.8s16.38-46.8,41.94-46.8c10.62,0,18.18,3.42,23.04,8.64v-7.2h29.7v96.66c0,18.72-13.5,30.78-34.38,30.78h-47.16v-22.68Zm34.56-37.8c11.52,0,18.9-8.46,18.9-21.6s-7.38-21.6-18.9-21.6-18.72,8.46-18.72,21.6,7.38,21.6,18.72,21.6Z"/><path class="cls-1" d="M1306.67,45.72h29.7v90.72h-29.7V45.72Z"/><path class="cls-1" d="M912.92,0c10.54,0,18.63,8.1,18.63,18.26s-8.1,18.26-18.63,18.26-18.43-8.28-18.43-18.26,8.09-18.26,18.43-18.26Z"/><path class="cls-1" d="M1321.42,0c10.54,0,18.63,8.1,18.63,18.26s-8.1,18.26-18.63,18.26-18.43-8.28-18.43-18.26,8.09-18.26,18.43-18.26Z"/></g></g></svg>